<svg width="206" height="22" viewBox="0 0 206 22" fill="none" xmlns="http://www.w3.org/2000/svg">
<path d="M3.88 1.14C4.26667 1.14 4.61667 1.22667 4.93 1.4C5.24333 1.57333 5.48667 1.81333 5.66 2.12C5.84 2.42 5.93 2.76 5.93 3.14C5.93 3.52 5.84 3.86333 5.66 4.17C5.48667 4.47 5.24333 4.70667 4.93 4.88C4.61667 5.05333 4.26667 5.14 3.88 5.14H1.9V8H0.92V1.14H3.88ZM1.9 2.03V4.25H3.79C4.10333 4.25 4.37333 4.14333 4.6 3.93C4.83333 3.71 4.95 3.44667 4.95 3.14C4.95 2.82667 4.83333 2.56333 4.6 2.35C4.37333 2.13667 4.10333 2.03 3.79 2.03H1.9ZM9.08023 2.79C9.75357 2.79 10.2536 2.92333 10.5802 3.19C10.9136 3.45667 11.0802 3.84333 11.0802 4.35V7C11.0802 7.12 11.1069 7.21 11.1602 7.27C11.2136 7.32333 11.2802 7.35 11.3602 7.35C11.5136 7.35 11.6669 7.30333 11.8202 7.21V7.9C11.5936 8.03333 11.3369 8.1 11.0502 8.1C10.7636 8.1 10.5502 8.02 10.4102 7.86C10.2702 7.69333 10.1936 7.46667 10.1802 7.18C9.7669 7.79333 9.17023 8.1 8.39023 8.1C7.83023 8.1 7.41023 7.98 7.13023 7.74C6.8569 7.49333 6.72023 7.10667 6.72023 6.58C6.72023 6.16667 6.8269 5.84333 7.04023 5.61C7.25357 5.37 7.6069 5.19667 8.10023 5.09C8.59357 4.98333 9.27357 4.93 10.1402 4.93V4.46C10.1402 4.12 10.0402 3.88333 9.84023 3.75C9.64023 3.61 9.35023 3.54 8.97023 3.54C8.61023 3.54 8.33023 3.61 8.13023 3.75C7.93023 3.89 7.83023 4.08667 7.83023 4.34V4.46H6.91023C6.8969 4.36667 6.89023 4.25667 6.89023 4.13C6.89023 3.89667 6.98357 3.67667 7.17023 3.47C7.3569 3.26333 7.61023 3.1 7.93023 2.98C8.25023 2.85333 8.60357 2.79 8.99023 2.79H9.08023ZM10.1402 5.66C9.44023 5.66 8.91023 5.69667 8.55023 5.77C8.1969 5.83667 7.96023 5.94 7.84023 6.08C7.72023 6.22 7.66023 6.41333 7.66023 6.66C7.66023 7.12 8.01023 7.35 8.71023 7.35C8.9569 7.35 9.19023 7.29 9.41023 7.17C9.63023 7.04333 9.8069 6.86667 9.94023 6.64C10.0736 6.41333 10.1402 6.15333 10.1402 5.86V5.66ZM14.8698 2.79C15.2498 2.79 15.5865 2.85 15.8798 2.97C16.1798 3.09 16.4098 3.25667 16.5698 3.47C16.7365 3.68333 16.8198 3.92 16.8198 4.18L16.8098 4.36H15.8798V4.27C15.8798 3.78333 15.5032 3.54 14.7498 3.54C14.0032 3.54 13.6298 3.76333 13.6298 4.21C13.6298 4.41667 13.7365 4.57 13.9498 4.67C14.1632 4.76333 14.4898 4.85333 14.9298 4.94C15.3498 5.02667 15.6932 5.11667 15.9598 5.21C16.2332 5.30333 16.4632 5.45 16.6498 5.65C16.8432 5.85 16.9398 6.12 16.9398 6.46C16.9398 7.00667 16.7532 7.41667 16.3798 7.69C16.0065 7.96333 15.4698 8.1 14.7698 8.1H14.6198C14.1998 8.1 13.8332 8.03667 13.5198 7.91C13.2065 7.77667 12.9632 7.6 12.7898 7.38C12.6232 7.15333 12.5432 6.9 12.5498 6.62V6.4H13.4798V6.5C13.4798 7.06667 13.9565 7.35 14.9098 7.35C15.1898 7.35 15.4398 7.28667 15.6598 7.16C15.8865 7.03333 15.9998 6.86 15.9998 6.64C15.9998 6.45333 15.9365 6.30667 15.8098 6.2C15.6898 6.09333 15.5398 6.01333 15.3598 5.96C15.1798 5.90667 14.9298 5.85333 14.6098 5.8C14.1965 5.72 13.8632 5.64 13.6098 5.56C13.3565 5.47333 13.1398 5.33 12.9598 5.13C12.7798 4.93 12.6898 4.65667 12.6898 4.31C12.6898 3.83667 12.8765 3.46667 13.2498 3.2C13.6232 2.92667 14.1332 2.79 14.7798 2.79H14.8698ZM20.2116 2.79C20.5916 2.79 20.9283 2.85 21.2216 2.97C21.5216 3.09 21.7516 3.25667 21.9116 3.47C22.0783 3.68333 22.1616 3.92 22.1616 4.18L22.1516 4.36H21.2216V4.27C21.2216 3.78333 20.845 3.54 20.0916 3.54C19.345 3.54 18.9716 3.76333 18.9716 4.21C18.9716 4.41667 19.0783 4.57 19.2916 4.67C19.505 4.76333 19.8316 4.85333 20.2716 4.94C20.6916 5.02667 21.035 5.11667 21.3016 5.21C21.575 5.30333 21.805 5.45 21.9916 5.65C22.185 5.85 22.2816 6.12 22.2816 6.46C22.2816 7.00667 22.095 7.41667 21.7216 7.69C21.3483 7.96333 20.8116 8.1 20.1116 8.1H19.9616C19.5416 8.1 19.175 8.03667 18.8616 7.91C18.5483 7.77667 18.305 7.6 18.1316 7.38C17.965 7.15333 17.885 6.9 17.8916 6.62V6.4H18.8216V6.5C18.8216 7.06667 19.2983 7.35 20.2516 7.35C20.5316 7.35 20.7816 7.28667 21.0016 7.16C21.2283 7.03333 21.3416 6.86 21.3416 6.64C21.3416 6.45333 21.2783 6.30667 21.1516 6.2C21.0316 6.09333 20.8816 6.01333 20.7016 5.96C20.5216 5.90667 20.2716 5.85333 19.9516 5.8C19.5383 5.72 19.205 5.64 18.9516 5.56C18.6983 5.47333 18.4816 5.33 18.3016 5.13C18.1216 4.93 18.0316 4.65667 18.0316 4.31C18.0316 3.83667 18.2183 3.46667 18.5916 3.2C18.965 2.92667 19.475 2.79 20.1216 2.79H20.2116ZM24.5634 0.8V1.67H23.5834V0.8H24.5634ZM24.5434 2.89V8H23.6034V2.89H24.5434ZM28.2411 2.79C28.9544 2.79 29.5244 3.01 29.9511 3.45C30.3778 3.89 30.5911 4.49333 30.5911 5.26V5.63C30.5911 6.39667 30.3811 7 29.9611 7.44C29.5411 7.88 28.9678 8.1 28.2411 8.1C27.5144 8.1 26.9411 7.88 26.5211 7.44C26.1011 7 25.8911 6.39667 25.8911 5.63V5.26C25.8911 4.49333 26.1044 3.89 26.5311 3.45C26.9578 3.01 27.5278 2.79 28.2411 2.79ZM28.2411 3.54C27.7944 3.54 27.4478 3.69333 27.2011 4C26.9544 4.30667 26.8311 4.75667 26.8311 5.35V5.54C26.8311 6.12 26.9511 6.56667 27.1911 6.88C27.4378 7.19333 27.7878 7.35 28.2411 7.35C28.6811 7.35 29.0244 7.19667 29.2711 6.89C29.5244 6.57667 29.6511 6.12667 29.6511 5.54V5.35C29.6511 4.77 29.5278 4.32333 29.2811 4.01C29.0411 3.69667 28.6944 3.54 28.2411 3.54ZM34.4633 2.79C35.0233 2.79 35.4633 2.94 35.7833 3.24C36.1033 3.54 36.2633 3.98 36.2633 4.56V8H35.3233V4.73C35.3233 3.93667 34.9633 3.54 34.2433 3.54C34.0033 3.54 33.7799 3.60333 33.5733 3.73C33.3666 3.85667 33.1999 4.03 33.0733 4.25C32.9466 4.46333 32.8833 4.7 32.8833 4.96V8H31.9433V2.89H32.6233L32.7533 3.64C33.1799 3.07333 33.7499 2.79 34.4633 2.79ZM39.881 2.79C40.5543 2.79 41.0543 2.92333 41.381 3.19C41.7143 3.45667 41.881 3.84333 41.881 4.35V7C41.881 7.12 41.9077 7.21 41.961 7.27C42.0143 7.32333 42.081 7.35 42.161 7.35C42.3143 7.35 42.4677 7.30333 42.621 7.21V7.9C42.3943 8.03333 42.1377 8.1 41.851 8.1C41.5643 8.1 41.351 8.02 41.211 7.86C41.071 7.69333 40.9943 7.46667 40.981 7.18C40.5677 7.79333 39.971 8.1 39.191 8.1C38.631 8.1 38.211 7.98 37.931 7.74C37.6577 7.49333 37.521 7.10667 37.521 6.58C37.521 6.16667 37.6277 5.84333 37.841 5.61C38.0543 5.37 38.4077 5.19667 38.901 5.09C39.3943 4.98333 40.0743 4.93 40.941 4.93V4.46C40.941 4.12 40.841 3.88333 40.641 3.75C40.441 3.61 40.151 3.54 39.771 3.54C39.411 3.54 39.131 3.61 38.931 3.75C38.731 3.89 38.631 4.08667 38.631 4.34V4.46H37.711C37.6977 4.36667 37.691 4.25667 37.691 4.13C37.691 3.89667 37.7843 3.67667 37.971 3.47C38.1577 3.26333 38.411 3.1 38.731 2.98C39.051 2.85333 39.4043 2.79 39.791 2.79H39.881ZM40.941 5.66C40.241 5.66 39.711 5.69667 39.351 5.77C38.9977 5.83667 38.761 5.94 38.641 6.08C38.521 6.22 38.461 6.41333 38.461 6.66C38.461 7.12 38.811 7.35 39.511 7.35C39.7577 7.35 39.991 7.29 40.211 7.17C40.431 7.04333 40.6077 6.86667 40.741 6.64C40.8743 6.41333 40.941 6.15333 40.941 5.86V5.66ZM44.8206 2.89H46.0106V3.64H44.8206V6.69C44.8206 6.93 44.8673 7.10333 44.9606 7.21C45.054 7.31667 45.1973 7.37 45.3906 7.37C45.564 7.37 45.7706 7.32 46.0106 7.22V7.92C45.7706 8.04 45.4606 8.1 45.0806 8.1C44.6873 8.1 44.3873 7.98333 44.1806 7.75C43.9806 7.51667 43.8806 7.14667 43.8806 6.64V3.64H43.3206V2.89H43.9106L44.2306 1.26H44.8206V2.89ZM49.2277 2.79C49.6477 2.79 50.0177 2.88 50.3377 3.06C50.6643 3.23333 50.9177 3.48333 51.0977 3.81C51.2777 4.13667 51.3677 4.51667 51.3677 4.95V5.66H47.7977C47.811 6.2 47.9377 6.61667 48.1777 6.91C48.4177 7.20333 48.7743 7.35 49.2477 7.35C49.6677 7.35 49.9777 7.22667 50.1777 6.98C50.3777 6.73333 50.4777 6.44 50.4777 6.1H51.3677C51.3677 6.5 51.2743 6.85 51.0877 7.15C50.9077 7.45 50.6543 7.68333 50.3277 7.85C50.0077 8.01667 49.641 8.1 49.2277 8.1H49.1877C48.4677 8.1 47.8977 7.87 47.4777 7.41C47.0643 6.94333 46.8577 6.32333 46.8577 5.55V5.35C46.8577 4.84333 46.951 4.39667 47.1377 4.01C47.3243 3.62333 47.591 3.32333 47.9377 3.11C48.2843 2.89667 48.691 2.79 49.1577 2.79H49.2277ZM49.1777 3.54C48.7977 3.54 48.4877 3.65667 48.2477 3.89C48.0143 4.12333 47.871 4.47 47.8177 4.93H50.4377V4.81C50.4377 4.43 50.321 4.12333 50.0877 3.89C49.861 3.65667 49.5577 3.54 49.1777 3.54ZM56.2757 2.89H57.4657V3.64H56.2757V6.69C56.2757 6.93 56.3224 7.10333 56.4157 7.21C56.509 7.31667 56.6524 7.37 56.8457 7.37C57.019 7.37 57.2257 7.32 57.4657 7.22V7.92C57.2257 8.04 56.9157 8.1 56.5357 8.1C56.1424 8.1 55.8424 7.98333 55.6357 7.75C55.4357 7.51667 55.3357 7.14667 55.3357 6.64V3.64H54.7757V2.89H55.3657L55.6857 1.26H56.2757V2.89ZM60.6827 2.79C61.1027 2.79 61.4727 2.88 61.7927 3.06C62.1194 3.23333 62.3727 3.48333 62.5527 3.81C62.7327 4.13667 62.8227 4.51667 62.8227 4.95V5.66H59.2527C59.2661 6.2 59.3927 6.61667 59.6327 6.91C59.8727 7.20333 60.2294 7.35 60.7027 7.35C61.1227 7.35 61.4327 7.22667 61.6327 6.98C61.8327 6.73333 61.9327 6.44 61.9327 6.1H62.8227C62.8227 6.5 62.7294 6.85 62.5427 7.15C62.3627 7.45 62.1094 7.68333 61.7827 7.85C61.4627 8.01667 61.0961 8.1 60.6827 8.1H60.6427C59.9227 8.1 59.3527 7.87 58.9327 7.41C58.5194 6.94333 58.3127 6.32333 58.3127 5.55V5.35C58.3127 4.84333 58.4061 4.39667 58.5927 4.01C58.7794 3.62333 59.0461 3.32333 59.3927 3.11C59.7394 2.89667 60.1461 2.79 60.6127 2.79H60.6827ZM60.6327 3.54C60.2527 3.54 59.9427 3.65667 59.7027 3.89C59.4694 4.12333 59.3261 4.47 59.2727 4.93H61.8927V4.81C61.8927 4.43 61.7761 4.12333 61.5427 3.89C61.3161 3.65667 61.0127 3.54 60.6327 3.54ZM66.1994 2.79C66.8727 2.79 67.3727 2.92333 67.6994 3.19C68.0327 3.45667 68.1994 3.84333 68.1994 4.35V7C68.1994 7.12 68.226 7.21 68.2794 7.27C68.3327 7.32333 68.3994 7.35 68.4794 7.35C68.6327 7.35 68.786 7.30333 68.9394 7.21V7.9C68.7127 8.03333 68.456 8.1 68.1694 8.1C67.8827 8.1 67.6694 8.02 67.5294 7.86C67.3894 7.69333 67.3127 7.46667 67.2994 7.18C66.886 7.79333 66.2894 8.1 65.5094 8.1C64.9494 8.1 64.5294 7.98 64.2494 7.74C63.976 7.49333 63.8394 7.10667 63.8394 6.58C63.8394 6.16667 63.946 5.84333 64.1594 5.61C64.3727 5.37 64.726 5.19667 65.2194 5.09C65.7127 4.98333 66.3927 4.93 67.2594 4.93V4.46C67.2594 4.12 67.1594 3.88333 66.9594 3.75C66.7594 3.61 66.4694 3.54 66.0894 3.54C65.7294 3.54 65.4494 3.61 65.2494 3.75C65.0494 3.89 64.9494 4.08667 64.9494 4.34V4.46H64.0294C64.016 4.36667 64.0094 4.25667 64.0094 4.13C64.0094 3.89667 64.1027 3.67667 64.2894 3.47C64.476 3.26333 64.7294 3.1 65.0494 2.98C65.3694 2.85333 65.7227 2.79 66.1094 2.79H66.1994ZM67.2594 5.66C66.5594 5.66 66.0294 5.69667 65.6694 5.77C65.316 5.83667 65.0794 5.94 64.9594 6.08C64.8394 6.22 64.7794 6.41333 64.7794 6.66C64.7794 7.12 65.1294 7.35 65.8294 7.35C66.076 7.35 66.3094 7.29 66.5294 7.17C66.7494 7.04333 66.926 6.86667 67.0594 6.64C67.1927 6.41333 67.2594 6.15333 67.2594 5.86V5.66ZM75.429 2.79C75.9557 2.79 76.3657 2.94333 76.659 3.25C76.9523 3.55667 77.099 3.99333 77.099 4.56V8H76.159V4.73C76.159 3.93667 75.8523 3.54 75.239 3.54C75.0257 3.54 74.8257 3.60333 74.639 3.73C74.459 3.85667 74.3123 4.03 74.199 4.25C74.0923 4.46333 74.039 4.7 74.039 4.96V8H73.099V4.73C73.099 3.93667 72.7923 3.54 72.179 3.54C71.9657 3.54 71.7657 3.60333 71.579 3.73C71.399 3.85667 71.2523 4.03 71.139 4.25C71.0323 4.46333 70.979 4.7 70.979 4.96V8H70.039V2.89H70.719L70.849 3.64C71.2357 3.07333 71.7723 2.79 72.459 2.79C73.1323 2.79 73.599 3.07333 73.859 3.64C74.0857 3.32 74.329 3.1 74.589 2.98C74.849 2.85333 75.129 2.79 75.429 2.79ZM83.1923 2.79C83.9056 2.79 84.4756 3.01 84.9023 3.45C85.3289 3.89 85.5423 4.49333 85.5423 5.26V5.63C85.5423 6.39667 85.3323 7 84.9123 7.44C84.4923 7.88 83.9189 8.1 83.1923 8.1C82.4656 8.1 81.8923 7.88 81.4723 7.44C81.0523 7 80.8423 6.39667 80.8423 5.63V5.26C80.8423 4.49333 81.0556 3.89 81.4823 3.45C81.9089 3.01 82.4789 2.79 83.1923 2.79ZM83.1923 3.54C82.7456 3.54 82.3989 3.69333 82.1523 4C81.9056 4.30667 81.7823 4.75667 81.7823 5.35V5.54C81.7823 6.12 81.9023 6.56667 82.1423 6.88C82.3889 7.19333 82.7389 7.35 83.1923 7.35C83.6323 7.35 83.9756 7.19667 84.2223 6.89C84.4756 6.57667 84.6023 6.12667 84.6023 5.54V5.35C84.6023 4.77 84.4789 4.32333 84.2323 4.01C83.9923 3.69667 83.6456 3.54 83.1923 3.54ZM88.2845 0.72C88.6645 0.72 88.9778 0.783333 89.2245 0.909999V1.6C89.0245 1.51333 88.8545 1.47 88.7145 1.47C88.4478 1.47 88.2678 1.52 88.1745 1.62C88.0811 1.71333 88.0345 1.87333 88.0345 2.1V2.89H89.2245V3.64H88.0345V8H87.0945V3.64H86.5345V2.89H87.0945V2.2C87.0945 1.21333 87.4911 0.72 88.2845 0.72ZM95.5648 1.04C95.3781 1.70667 95.0514 2.49333 94.5848 3.4C94.1181 4.3 93.6948 4.97333 93.3148 5.42H95.6148V3.43C95.8414 2.98333 96.0214 2.52667 96.1548 2.06H96.5948V5.42H97.4648V6.31H96.5948V8H95.6148V6.31H92.3848V5.41C93.2914 4.05 94.0014 2.59333 94.5148 1.04H95.5648ZM105.479 8H104.779C104.732 7.78667 104.689 7.55333 104.649 7.3C104.269 7.83333 103.742 8.1 103.069 8.1C102.429 8.1 101.922 7.86333 101.549 7.39C101.182 6.91667 100.999 6.26667 100.999 5.44V5.33C100.999 4.55 101.179 3.93333 101.539 3.48C101.905 3.02 102.415 2.79 103.069 2.79C103.702 2.79 104.192 3.04 104.539 3.54V0.8H105.479V8ZM103.239 3.54C102.792 3.54 102.462 3.69667 102.249 4.01C102.042 4.31667 101.939 4.79667 101.939 5.45C101.939 6.10333 102.045 6.58333 102.259 6.89C102.472 7.19667 102.799 7.35 103.239 7.35C104.112 7.35 104.549 6.71667 104.549 5.45C104.549 4.79667 104.439 4.31667 104.219 4.01C103.999 3.69667 103.672 3.54 103.239 3.54ZM109.189 2.79C109.609 2.79 109.979 2.88 110.299 3.06C110.625 3.23333 110.879 3.48333 111.059 3.81C111.239 4.13667 111.329 4.51667 111.329 4.95V5.66H107.759C107.772 6.2 107.899 6.61667 108.139 6.91C108.379 7.20333 108.735 7.35 109.209 7.35C109.629 7.35 109.939 7.22667 110.139 6.98C110.339 6.73333 110.439 6.44 110.439 6.1H111.329C111.329 6.5 111.235 6.85 111.049 7.15C110.869 7.45 110.615 7.68333 110.289 7.85C109.969 8.01667 109.602 8.1 109.189 8.1H109.149C108.429 8.1 107.859 7.87 107.439 7.41C107.025 6.94333 106.819 6.32333 106.819 5.55V5.35C106.819 4.84333 106.912 4.39667 107.099 4.01C107.285 3.62333 107.552 3.32333 107.899 3.11C108.245 2.89667 108.652 2.79 109.119 2.79H109.189ZM109.139 3.54C108.759 3.54 108.449 3.65667 108.209 3.89C107.975 4.12333 107.832 4.47 107.779 4.93H110.399V4.81C110.399 4.43 110.282 4.12333 110.049 3.89C109.822 3.65667 109.519 3.54 109.139 3.54ZM114.645 2.79C115.025 2.79 115.362 2.85 115.655 2.97C115.955 3.09 116.185 3.25667 116.345 3.47C116.512 3.68333 116.595 3.92 116.595 4.18L116.585 4.36H115.655V4.27C115.655 3.78333 115.279 3.54 114.525 3.54C113.779 3.54 113.405 3.76333 113.405 4.21C113.405 4.41667 113.512 4.57 113.725 4.67C113.939 4.76333 114.265 4.85333 114.705 4.94C115.125 5.02667 115.469 5.11667 115.735 5.21C116.009 5.30333 116.239 5.45 116.425 5.65C116.619 5.85 116.715 6.12 116.715 6.46C116.715 7.00667 116.529 7.41667 116.155 7.69C115.782 7.96333 115.245 8.1 114.545 8.1H114.395C113.975 8.1 113.609 8.03667 113.295 7.91C112.982 7.77667 112.739 7.6 112.565 7.38C112.399 7.15333 112.319 6.9 112.325 6.62V6.4H113.255V6.5C113.255 7.06667 113.732 7.35 114.685 7.35C114.965 7.35 115.215 7.28667 115.435 7.16C115.662 7.03333 115.775 6.86 115.775 6.64C115.775 6.45333 115.712 6.30667 115.585 6.2C115.465 6.09333 115.315 6.01333 115.135 5.96C114.955 5.90667 114.705 5.85333 114.385 5.8C113.972 5.72 113.639 5.64 113.385 5.56C113.132 5.47333 112.915 5.33 112.735 5.13C112.555 4.93 112.465 4.65667 112.465 4.31C112.465 3.83667 112.652 3.46667 113.025 3.2C113.399 2.92667 113.909 2.79 114.555 2.79H114.645ZM118.997 0.8V1.67H118.017V0.8H118.997ZM118.977 2.89V8H118.037V2.89H118.977ZM125.315 1.97C125.315 2.31 125.225 2.59667 125.045 2.83C124.865 3.05667 124.615 3.20333 124.295 3.27L124.275 3.3C124.608 3.59333 124.775 3.96 124.775 4.4C124.775 4.88 124.595 5.26667 124.235 5.56C123.875 5.85333 123.385 6 122.765 6H122.085C121.885 6 121.718 6.05333 121.585 6.16C121.451 6.26 121.385 6.39 121.385 6.55C121.385 6.71 121.448 6.83667 121.575 6.93C121.701 7.02333 121.871 7.07 122.085 7.07H124.015C124.408 7.07 124.721 7.19333 124.955 7.44C125.195 7.68667 125.315 8 125.315 8.38C125.315 8.83333 125.141 9.19667 124.795 9.47C124.455 9.74333 123.995 9.88 123.415 9.88H121.405C121.178 9.88 120.968 9.82 120.775 9.7C120.588 9.58 120.438 9.42667 120.325 9.24C120.218 9.06 120.165 8.87333 120.165 8.68C120.165 8.4 120.231 8.15667 120.365 7.95C120.505 7.74333 120.688 7.59 120.915 7.49C120.608 7.30333 120.455 7.02667 120.455 6.66C120.455 6.42 120.525 6.21333 120.665 6.04C120.805 5.86667 121.001 5.73667 121.255 5.65C120.808 5.40333 120.585 4.98667 120.585 4.4C120.585 3.90667 120.765 3.51667 121.125 3.23C121.491 2.93667 121.998 2.79 122.645 2.79H122.685C123.058 2.79 123.398 2.84667 123.705 2.96C124.178 2.72667 124.448 2.39667 124.515 1.97H125.315ZM122.675 3.54C122.321 3.54 122.038 3.61 121.825 3.75C121.618 3.88333 121.515 4.1 121.515 4.4C121.515 4.7 121.618 4.91667 121.825 5.05C122.038 5.18333 122.321 5.25 122.675 5.25C123.028 5.25 123.311 5.18333 123.525 5.05C123.738 4.91667 123.845 4.7 123.845 4.4C123.845 4.1 123.738 3.88333 123.525 3.75C123.311 3.61 123.028 3.54 122.675 3.54ZM121.675 7.97C121.515 7.97 121.378 8.02667 121.265 8.14C121.151 8.25333 121.095 8.39 121.095 8.55C121.095 8.71 121.151 8.84667 121.265 8.96C121.378 9.07333 121.515 9.13 121.675 9.13H123.605C123.818 9.13 124.001 9.06667 124.155 8.94C124.308 8.82 124.385 8.68 124.385 8.52C124.385 8.35333 124.328 8.22 124.215 8.12C124.101 8.02 123.941 7.97 123.735 7.97H121.675ZM128.838 2.79C129.398 2.79 129.838 2.94 130.158 3.24C130.478 3.54 130.638 3.98 130.638 4.56V8H129.698V4.73C129.698 3.93667 129.338 3.54 128.618 3.54C128.378 3.54 128.155 3.60333 127.948 3.73C127.742 3.85667 127.575 4.03 127.448 4.25C127.322 4.46333 127.258 4.7 127.258 4.96V8H126.318V2.89H126.998L127.128 3.64C127.555 3.07333 128.125 2.79 128.838 2.79ZM134.296 2.79C134.716 2.79 135.086 2.88 135.406 3.06C135.733 3.23333 135.986 3.48333 136.166 3.81C136.346 4.13667 136.436 4.51667 136.436 4.95V5.66H132.866C132.879 6.2 133.006 6.61667 133.246 6.91C133.486 7.20333 133.843 7.35 134.316 7.35C134.736 7.35 135.046 7.22667 135.246 6.98C135.446 6.73333 135.546 6.44 135.546 6.1H136.436C136.436 6.5 136.343 6.85 136.156 7.15C135.976 7.45 135.723 7.68333 135.396 7.85C135.076 8.01667 134.709 8.1 134.296 8.1H134.256C133.536 8.1 132.966 7.87 132.546 7.41C132.133 6.94333 131.926 6.32333 131.926 5.55V5.35C131.926 4.84333 132.019 4.39667 132.206 4.01C132.393 3.62333 132.659 3.32333 133.006 3.11C133.353 2.89667 133.759 2.79 134.226 2.79H134.296ZM134.246 3.54C133.866 3.54 133.556 3.65667 133.316 3.89C133.083 4.12333 132.939 4.47 132.886 4.93H135.506V4.81C135.506 4.43 135.389 4.12333 135.156 3.89C134.929 3.65667 134.626 3.54 134.246 3.54ZM140.103 2.79C140.576 2.79 140.946 2.94333 141.213 3.25C141.479 3.55 141.613 3.93 141.613 4.39L141.583 4.77H140.753V4.55C140.753 4.35 140.703 4.17333 140.603 4.02C140.503 3.86667 140.376 3.75 140.223 3.67C140.069 3.58333 139.916 3.54 139.763 3.54C139.443 3.54 139.193 3.66667 139.013 3.92C138.833 4.17333 138.743 4.51667 138.743 4.95V8H137.803V2.89H138.473L138.613 3.65C138.653 3.51667 138.743 3.38333 138.883 3.25C139.023 3.11667 139.196 3.00667 139.403 2.92C139.616 2.83333 139.849 2.79 140.103 2.79ZM144.655 2.79C145.035 2.79 145.372 2.85 145.665 2.97C145.965 3.09 146.195 3.25667 146.355 3.47C146.522 3.68333 146.605 3.92 146.605 4.18L146.595 4.36H145.665V4.27C145.665 3.78333 145.288 3.54 144.535 3.54C143.788 3.54 143.415 3.76333 143.415 4.21C143.415 4.41667 143.522 4.57 143.735 4.67C143.948 4.76333 144.275 4.85333 144.715 4.94C145.135 5.02667 145.478 5.11667 145.745 5.21C146.018 5.30333 146.248 5.45 146.435 5.65C146.628 5.85 146.725 6.12 146.725 6.46C146.725 7.00667 146.538 7.41667 146.165 7.69C145.792 7.96333 145.255 8.1 144.555 8.1H144.405C143.985 8.1 143.618 8.03667 143.305 7.91C142.992 7.77667 142.748 7.6 142.575 7.38C142.408 7.15333 142.328 6.9 142.335 6.62V6.4H143.265V6.5C143.265 7.06667 143.742 7.35 144.695 7.35C144.975 7.35 145.225 7.28667 145.445 7.16C145.672 7.03333 145.785 6.86 145.785 6.64C145.785 6.45333 145.722 6.30667 145.595 6.2C145.475 6.09333 145.325 6.01333 145.145 5.96C144.965 5.90667 144.715 5.85333 144.395 5.8C143.982 5.72 143.648 5.64 143.395 5.56C143.142 5.47333 142.925 5.33 142.745 5.13C142.565 4.93 142.475 4.65667 142.475 4.31C142.475 3.83667 142.662 3.46667 143.035 3.2C143.408 2.92667 143.918 2.79 144.565 2.79H144.655ZM157.548 2.89L155.878 8H154.898L153.718 4.43H153.678L152.518 8H151.538L149.858 2.89H150.828L152.018 6.63H152.058L153.268 2.89H154.188L155.378 6.63H155.418L156.628 2.89H157.548ZM160.595 2.79C161.308 2.79 161.878 3.01 162.305 3.45C162.731 3.89 162.945 4.49333 162.945 5.26V5.63C162.945 6.39667 162.735 7 162.315 7.44C161.895 7.88 161.321 8.1 160.595 8.1C159.868 8.1 159.295 7.88 158.875 7.44C158.455 7 158.245 6.39667 158.245 5.63V5.26C158.245 4.49333 158.458 3.89 158.885 3.45C159.311 3.01 159.881 2.79 160.595 2.79ZM160.595 3.54C160.148 3.54 159.801 3.69333 159.555 4C159.308 4.30667 159.185 4.75667 159.185 5.35V5.54C159.185 6.12 159.305 6.56667 159.545 6.88C159.791 7.19333 160.141 7.35 160.595 7.35C161.035 7.35 161.378 7.19667 161.625 6.89C161.878 6.57667 162.005 6.12667 162.005 5.54V5.35C162.005 4.77 161.881 4.32333 161.635 4.01C161.395 3.69667 161.048 3.54 160.595 3.54ZM166.597 2.79C167.07 2.79 167.44 2.94333 167.707 3.25C167.973 3.55 168.107 3.93 168.107 4.39L168.077 4.77H167.247V4.55C167.247 4.35 167.197 4.17333 167.097 4.02C166.997 3.86667 166.87 3.75 166.717 3.67C166.563 3.58333 166.41 3.54 166.257 3.54C165.937 3.54 165.687 3.66667 165.507 3.92C165.327 4.17333 165.237 4.51667 165.237 4.95V8H164.297V2.89H164.967L165.107 3.65C165.147 3.51667 165.237 3.38333 165.377 3.25C165.517 3.11667 165.69 3.00667 165.897 2.92C166.11 2.83333 166.343 2.79 166.597 2.79ZM170.139 0.8V5.74L172.419 2.89H173.449L171.479 5.37L173.579 8H172.439L170.909 6.1L170.139 6.9V8H169.199V0.8H170.139ZM175.511 0.8V1.67H174.531V0.8H175.511ZM175.491 2.89V8H174.551V2.89H175.491ZM179.668 2.79C180.228 2.79 180.668 2.94 180.988 3.24C181.308 3.54 181.468 3.98 181.468 4.56V8H180.528V4.73C180.528 3.93667 180.168 3.54 179.448 3.54C179.208 3.54 178.985 3.60333 178.778 3.73C178.572 3.85667 178.405 4.03 178.278 4.25C178.152 4.46333 178.088 4.7 178.088 4.96V8H177.148V2.89H177.828L177.958 3.64C178.385 3.07333 178.955 2.79 179.668 2.79ZM187.756 1.97C187.756 2.31 187.666 2.59667 187.486 2.83C187.306 3.05667 187.056 3.20333 186.736 3.27L186.716 3.3C187.049 3.59333 187.216 3.96 187.216 4.4C187.216 4.88 187.036 5.26667 186.676 5.56C186.316 5.85333 185.826 6 185.206 6H184.526C184.326 6 184.159 6.05333 184.026 6.16C183.893 6.26 183.826 6.39 183.826 6.55C183.826 6.71 183.889 6.83667 184.016 6.93C184.143 7.02333 184.313 7.07 184.526 7.07H186.456C186.849 7.07 187.163 7.19333 187.396 7.44C187.636 7.68667 187.756 8 187.756 8.38C187.756 8.83333 187.583 9.19667 187.236 9.47C186.896 9.74333 186.436 9.88 185.856 9.88H183.846C183.619 9.88 183.409 9.82 183.216 9.7C183.029 9.58 182.879 9.42667 182.766 9.24C182.659 9.06 182.606 8.87333 182.606 8.68C182.606 8.4 182.673 8.15667 182.806 7.95C182.946 7.74333 183.129 7.59 183.356 7.49C183.049 7.30333 182.896 7.02667 182.896 6.66C182.896 6.42 182.966 6.21333 183.106 6.04C183.246 5.86667 183.443 5.73667 183.696 5.65C183.249 5.40333 183.026 4.98667 183.026 4.4C183.026 3.90667 183.206 3.51667 183.566 3.23C183.933 2.93667 184.439 2.79 185.086 2.79H185.126C185.499 2.79 185.839 2.84667 186.146 2.96C186.619 2.72667 186.889 2.39667 186.956 1.97H187.756ZM185.116 3.54C184.763 3.54 184.479 3.61 184.266 3.75C184.059 3.88333 183.956 4.1 183.956 4.4C183.956 4.7 184.059 4.91667 184.266 5.05C184.479 5.18333 184.763 5.25 185.116 5.25C185.469 5.25 185.753 5.18333 185.966 5.05C186.179 4.91667 186.286 4.7 186.286 4.4C186.286 4.1 186.179 3.88333 185.966 3.75C185.753 3.61 185.469 3.54 185.116 3.54ZM184.116 7.97C183.956 7.97 183.819 8.02667 183.706 8.14C183.593 8.25333 183.536 8.39 183.536 8.55C183.536 8.71 183.593 8.84667 183.706 8.96C183.819 9.07333 183.956 9.13 184.116 9.13H186.046C186.259 9.13 186.443 9.06667 186.596 8.94C186.749 8.82 186.826 8.68 186.826 8.52C186.826 8.35333 186.769 8.22 186.656 8.12C186.543 8.02 186.383 7.97 186.176 7.97H184.116ZM193.241 2.79C193.954 2.79 194.524 3.01 194.951 3.45C195.378 3.89 195.591 4.49333 195.591 5.26V5.63C195.591 6.39667 195.381 7 194.961 7.44C194.541 7.88 193.968 8.1 193.241 8.1C192.514 8.1 191.941 7.88 191.521 7.44C191.101 7 190.891 6.39667 190.891 5.63V5.26C190.891 4.49333 191.104 3.89 191.531 3.45C191.958 3.01 192.528 2.79 193.241 2.79ZM193.241 3.54C192.794 3.54 192.448 3.69333 192.201 4C191.954 4.30667 191.831 4.75667 191.831 5.35V5.54C191.831 6.12 191.951 6.56667 192.191 6.88C192.438 7.19333 192.788 7.35 193.241 7.35C193.681 7.35 194.024 7.19667 194.271 6.89C194.524 6.57667 194.651 6.12667 194.651 5.54V5.35C194.651 4.77 194.528 4.32333 194.281 4.01C194.041 3.69667 193.694 3.54 193.241 3.54ZM201.213 7C201.213 7.12 201.24 7.21 201.293 7.27C201.347 7.32333 201.413 7.35 201.493 7.35C201.64 7.35 201.79 7.30333 201.943 7.21V7.9C201.737 8.03333 201.527 8.1 201.313 8.1C200.953 8.1 200.7 8.02667 200.553 7.88C200.413 7.73333 200.337 7.52667 200.323 7.26C200.143 7.52667 199.91 7.73333 199.623 7.88C199.343 8.02667 199.02 8.1 198.653 8.1C198.14 8.1 197.717 7.95 197.383 7.65C197.057 7.34333 196.893 6.90333 196.893 6.33V2.89H197.833V6.16C197.833 6.95333 198.193 7.35 198.913 7.35C199.147 7.35 199.367 7.28667 199.573 7.16C199.787 7.03333 199.957 6.86333 200.083 6.65C200.21 6.43 200.273 6.19 200.273 5.93V2.89H201.213V7ZM204.225 2.89H205.415V3.64H204.225V6.69C204.225 6.93 204.272 7.10333 204.365 7.21C204.458 7.31667 204.602 7.37 204.795 7.37C204.968 7.37 205.175 7.32 205.415 7.22V7.92C205.175 8.04 204.865 8.1 204.485 8.1C204.092 8.1 203.792 7.98333 203.585 7.75C203.385 7.51667 203.285 7.14667 203.285 6.64V3.64H202.725V2.89H203.315L203.635 1.26H204.225V2.89ZM2.87 14.79C3.58333 14.79 4.15333 15.01 4.58 15.45C5.00667 15.89 5.22 16.4933 5.22 17.26V17.63C5.22 18.3967 5.01 19 4.59 19.44C4.17 19.88 3.59667 20.1 2.87 20.1C2.14333 20.1 1.57 19.88 1.15 19.44C0.73 19 0.52 18.3967 0.52 17.63V17.26C0.52 16.4933 0.733333 15.89 1.16 15.45C1.58667 15.01 2.15667 14.79 2.87 14.79ZM2.87 15.54C2.42333 15.54 2.07667 15.6933 1.83 16C1.58333 16.3067 1.46 16.7567 1.46 17.35V17.54C1.46 18.12 1.58 18.5667 1.82 18.88C2.06667 19.1933 2.41667 19.35 2.87 19.35C3.31 19.35 3.65333 19.1967 3.9 18.89C4.15333 18.5767 4.28 18.1267 4.28 17.54V17.35C4.28 16.77 4.15667 16.3233 3.91 16.01C3.67 15.6967 3.32333 15.54 2.87 15.54ZM7.96219 12.72C8.34219 12.72 8.65552 12.7833 8.90219 12.91V13.6C8.70219 13.5133 8.53219 13.47 8.39219 13.47C8.12552 13.47 7.94552 13.52 7.85219 13.62C7.75885 13.7133 7.71219 13.8733 7.71219 14.1V14.89H8.90219V15.64H7.71219V20H6.77219V15.64H6.21219V14.89H6.77219V14.2C6.77219 13.2133 7.16885 12.72 7.96219 12.72ZM15.5225 13.14C15.8492 13.14 16.1492 13.2167 16.4225 13.37C16.6958 13.5167 16.9125 13.72 17.0725 13.98C17.2392 14.2333 17.3225 14.5133 17.3225 14.82C17.3225 15.2267 17.2225 15.5667 17.0225 15.84C16.8225 16.1133 16.5225 16.3067 16.1225 16.42V16.47C16.5158 16.53 16.8392 16.7067 17.0925 17C17.3525 17.2933 17.4825 17.67 17.4825 18.13C17.4825 18.4967 17.3925 18.8233 17.2125 19.11C17.0392 19.39 16.8058 19.61 16.5125 19.77C16.2192 19.9233 15.9092 20 15.5825 20H12.4825V13.14H15.5225ZM13.4625 14.03V16.06H15.3225C15.5892 16.06 15.8258 15.9633 16.0325 15.77C16.2392 15.5767 16.3425 15.3367 16.3425 15.05C16.3425 14.77 16.2425 14.53 16.0425 14.33C15.8425 14.13 15.6025 14.03 15.3225 14.03H13.4625ZM13.4625 16.95V19.11H15.4225C15.7225 19.11 15.9758 19.0067 16.1825 18.8C16.3958 18.5867 16.5025 18.33 16.5025 18.03C16.5025 17.73 16.3958 17.4767 16.1825 17.27C15.9758 17.0567 15.7225 16.95 15.4225 16.95H13.4625ZM20.9162 14.79C21.5895 14.79 22.0895 14.9233 22.4162 15.19C22.7495 15.4567 22.9162 15.8433 22.9162 16.35V19C22.9162 19.12 22.9428 19.21 22.9962 19.27C23.0495 19.3233 23.1162 19.35 23.1962 19.35C23.3495 19.35 23.5028 19.3033 23.6562 19.21V19.9C23.4295 20.0333 23.1728 20.1 22.8862 20.1C22.5995 20.1 22.3862 20.02 22.2462 19.86C22.1062 19.6933 22.0295 19.4667 22.0162 19.18C21.6028 19.7933 21.0062 20.1 20.2262 20.1C19.6662 20.1 19.2462 19.98 18.9662 19.74C18.6928 19.4933 18.5562 19.1067 18.5562 18.58C18.5562 18.1667 18.6628 17.8433 18.8762 17.61C19.0895 17.37 19.4428 17.1967 19.9362 17.09C20.4295 16.9833 21.1095 16.93 21.9762 16.93V16.46C21.9762 16.12 21.8762 15.8833 21.6762 15.75C21.4762 15.61 21.1862 15.54 20.8062 15.54C20.4462 15.54 20.1662 15.61 19.9662 15.75C19.7662 15.89 19.6662 16.0867 19.6662 16.34V16.46H18.7462C18.7328 16.3667 18.7262 16.2567 18.7262 16.13C18.7262 15.8967 18.8195 15.6767 19.0062 15.47C19.1928 15.2633 19.4462 15.1 19.7662 14.98C20.0862 14.8533 20.4395 14.79 20.8262 14.79H20.9162ZM21.9762 17.66C21.2762 17.66 20.7462 17.6967 20.3862 17.77C20.0328 17.8367 19.7962 17.94 19.6762 18.08C19.5562 18.22 19.4962 18.4133 19.4962 18.66C19.4962 19.12 19.8462 19.35 20.5462 19.35C20.7928 19.35 21.0262 19.29 21.2462 19.17C21.4662 19.0433 21.6428 18.8667 21.7762 18.64C21.9095 18.4133 21.9762 18.1533 21.9762 17.86V17.66ZM27.2758 14.79C27.8358 14.79 28.2758 14.94 28.5958 15.24C28.9158 15.54 29.0758 15.98 29.0758 16.56V20H28.1358V16.73C28.1358 15.9367 27.7758 15.54 27.0558 15.54C26.8158 15.54 26.5924 15.6033 26.3858 15.73C26.1791 15.8567 26.0124 16.03 25.8858 16.25C25.7591 16.4633 25.6958 16.7 25.6958 16.96V20H24.7558V14.89H25.4358L25.5658 15.64C25.9924 15.0733 26.5624 14.79 27.2758 14.79ZM35.3635 13.97C35.3635 14.31 35.2735 14.5967 35.0935 14.83C34.9135 15.0567 34.6635 15.2033 34.3435 15.27L34.3235 15.3C34.6568 15.5933 34.8235 15.96 34.8235 16.4C34.8235 16.88 34.6435 17.2667 34.2835 17.56C33.9235 17.8533 33.4335 18 32.8135 18H32.1335C31.9335 18 31.7668 18.0533 31.6335 18.16C31.5002 18.26 31.4335 18.39 31.4335 18.55C31.4335 18.71 31.4968 18.8367 31.6235 18.93C31.7502 19.0233 31.9202 19.07 32.1335 19.07H34.0635C34.4568 19.07 34.7702 19.1933 35.0035 19.44C35.2435 19.6867 35.3635 20 35.3635 20.38C35.3635 20.8333 35.1902 21.1967 34.8435 21.47C34.5035 21.7433 34.0435 21.88 33.4635 21.88H31.4535C31.2268 21.88 31.0168 21.82 30.8235 21.7C30.6368 21.58 30.4868 21.4267 30.3735 21.24C30.2668 21.06 30.2135 20.8733 30.2135 20.68C30.2135 20.4 30.2802 20.1567 30.4135 19.95C30.5535 19.7433 30.7368 19.59 30.9635 19.49C30.6568 19.3033 30.5035 19.0267 30.5035 18.66C30.5035 18.42 30.5735 18.2133 30.7135 18.04C30.8535 17.8667 31.0502 17.7367 31.3035 17.65C30.8568 17.4033 30.6335 16.9867 30.6335 16.4C30.6335 15.9067 30.8135 15.5167 31.1735 15.23C31.5402 14.9367 32.0468 14.79 32.6935 14.79H32.7335C33.1068 14.79 33.4468 14.8467 33.7535 14.96C34.2268 14.7267 34.4968 14.3967 34.5635 13.97H35.3635ZM32.7235 15.54C32.3702 15.54 32.0868 15.61 31.8735 15.75C31.6668 15.8833 31.5635 16.1 31.5635 16.4C31.5635 16.7 31.6668 16.9167 31.8735 17.05C32.0868 17.1833 32.3702 17.25 32.7235 17.25C33.0768 17.25 33.3602 17.1833 33.5735 17.05C33.7868 16.9167 33.8935 16.7 33.8935 16.4C33.8935 16.1 33.7868 15.8833 33.5735 15.75C33.3602 15.61 33.0768 15.54 32.7235 15.54ZM31.7235 19.97C31.5635 19.97 31.4268 20.0267 31.3135 20.14C31.2002 20.2533 31.1435 20.39 31.1435 20.55C31.1435 20.71 31.2002 20.8467 31.3135 20.96C31.4268 21.0733 31.5635 21.13 31.7235 21.13H33.6535C33.8668 21.13 34.0502 21.0667 34.2035 20.94C34.3568 20.82 34.4335 20.68 34.4335 20.52C34.4335 20.3533 34.3768 20.22 34.2635 20.12C34.1502 20.02 33.9902 19.97 33.7835 19.97H31.7235ZM38.3771 14.79C39.0504 14.79 39.5504 14.9233 39.8771 15.19C40.2104 15.4567 40.3771 15.8433 40.3771 16.35V19C40.3771 19.12 40.4038 19.21 40.4571 19.27C40.5104 19.3233 40.5771 19.35 40.6571 19.35C40.8104 19.35 40.9638 19.3033 41.1171 19.21V19.9C40.8904 20.0333 40.6338 20.1 40.3471 20.1C40.0604 20.1 39.8471 20.02 39.7071 19.86C39.5671 19.6933 39.4904 19.4667 39.4771 19.18C39.0638 19.7933 38.4671 20.1 37.6871 20.1C37.1271 20.1 36.7071 19.98 36.4271 19.74C36.1538 19.4933 36.0171 19.1067 36.0171 18.58C36.0171 18.1667 36.1238 17.8433 36.3371 17.61C36.5504 17.37 36.9038 17.1967 37.3971 17.09C37.8904 16.9833 38.5704 16.93 39.4371 16.93V16.46C39.4371 16.12 39.3371 15.8833 39.1371 15.75C38.9371 15.61 38.6471 15.54 38.2671 15.54C37.9071 15.54 37.6271 15.61 37.4271 15.75C37.2271 15.89 37.1271 16.0867 37.1271 16.34V16.46H36.2071C36.1938 16.3667 36.1871 16.2567 36.1871 16.13C36.1871 15.8967 36.2804 15.6767 36.4671 15.47C36.6538 15.2633 36.9071 15.1 37.2271 14.98C37.5471 14.8533 37.9004 14.79 38.2871 14.79H38.3771ZM39.4371 17.66C38.7371 17.66 38.2071 17.6967 37.8471 17.77C37.4938 17.8367 37.2571 17.94 37.1371 18.08C37.0171 18.22 36.9571 18.4133 36.9571 18.66C36.9571 19.12 37.3071 19.35 38.0071 19.35C38.2538 19.35 38.4871 19.29 38.7071 19.17C38.9271 19.0433 39.1038 18.8667 39.2371 18.64C39.3704 18.4133 39.4371 18.1533 39.4371 17.86V17.66ZM43.1967 12.8V20H42.2567V12.8H43.1967ZM46.9325 14.79C47.6458 14.79 48.2158 15.01 48.6425 15.45C49.0692 15.89 49.2825 16.4933 49.2825 17.26V17.63C49.2825 18.3967 49.0725 19 48.6525 19.44C48.2325 19.88 47.6592 20.1 46.9325 20.1C46.2058 20.1 45.6325 19.88 45.2125 19.44C44.7925 19 44.5825 18.3967 44.5825 17.63V17.26C44.5825 16.4933 44.7958 15.89 45.2225 15.45C45.6492 15.01 46.2192 14.79 46.9325 14.79ZM46.9325 15.54C46.4858 15.54 46.1392 15.6933 45.8925 16C45.6458 16.3067 45.5225 16.7567 45.5225 17.35V17.54C45.5225 18.12 45.6425 18.5667 45.8825 18.88C46.1292 19.1933 46.4792 19.35 46.9325 19.35C47.3725 19.35 47.7158 19.1967 47.9625 18.89C48.2158 18.5767 48.3425 18.1267 48.3425 17.54V17.35C48.3425 16.77 48.2192 16.3233 47.9725 16.01C47.7325 15.6967 47.3858 15.54 46.9325 15.54ZM52.9347 14.79C53.408 14.79 53.778 14.9433 54.0447 15.25C54.3114 15.55 54.4447 15.93 54.4447 16.39L54.4147 16.77H53.5847V16.55C53.5847 16.35 53.5347 16.1733 53.4347 16.02C53.3347 15.8667 53.208 15.75 53.0547 15.67C52.9014 15.5833 52.748 15.54 52.5947 15.54C52.2747 15.54 52.0247 15.6667 51.8447 15.92C51.6647 16.1733 51.5747 16.5167 51.5747 16.95V20H50.6347V14.89H51.3047L51.4447 15.65C51.4847 15.5167 51.5747 15.3833 51.7147 15.25C51.8547 15.1167 52.028 15.0067 52.2347 14.92C52.448 14.8333 52.6814 14.79 52.9347 14.79ZM57.587 14.79C58.007 14.79 58.377 14.88 58.697 15.06C59.0237 15.2333 59.277 15.4833 59.457 15.81C59.637 16.1367 59.727 16.5167 59.727 16.95V17.66H56.157C56.1704 18.2 56.297 18.6167 56.537 18.91C56.777 19.2033 57.1337 19.35 57.607 19.35C58.027 19.35 58.337 19.2267 58.537 18.98C58.737 18.7333 58.837 18.44 58.837 18.1H59.727C59.727 18.5 59.6337 18.85 59.447 19.15C59.267 19.45 59.0137 19.6833 58.687 19.85C58.367 20.0167 58.0004 20.1 57.587 20.1H57.547C56.827 20.1 56.257 19.87 55.837 19.41C55.4237 18.9433 55.217 18.3233 55.217 17.55V17.35C55.217 16.8433 55.3104 16.3967 55.497 16.01C55.6837 15.6233 55.9504 15.3233 56.297 15.11C56.6437 14.8967 57.0504 14.79 57.517 14.79H57.587ZM57.537 15.54C57.157 15.54 56.847 15.6567 56.607 15.89C56.3737 16.1233 56.2304 16.47 56.177 16.93H58.797V16.81C58.797 16.43 58.6804 16.1233 58.447 15.89C58.2204 15.6567 57.917 15.54 57.537 15.54ZM70.5951 14.89L68.9251 20H67.9451L66.7651 16.43H66.7251L65.5651 20H64.5851L62.9051 14.89H63.8751L65.0651 18.63H65.1051L66.3151 14.89H67.2351L68.4251 18.63H68.4651L69.6751 14.89H70.5951ZM72.6005 12.8V13.67H71.6205V12.8H72.6005ZM72.5805 14.89V20H71.6405V14.89H72.5805ZM75.3382 14.89H76.5282V15.64H75.3382V18.69C75.3382 18.93 75.3849 19.1033 75.4782 19.21C75.5715 19.3167 75.7149 19.37 75.9082 19.37C76.0815 19.37 76.2882 19.32 76.5282 19.22V19.92C76.2882 20.04 75.9782 20.1 75.5982 20.1C75.2049 20.1 74.9049 19.9833 74.6982 19.75C74.4982 19.5167 74.3982 19.1467 74.3982 18.64V15.64H73.8382V14.89H74.4282L74.7482 13.26H75.3382V14.89ZM78.6352 15.53C79.0552 15.0367 79.5819 14.79 80.2152 14.79C80.7752 14.79 81.2152 14.94 81.5352 15.24C81.8552 15.54 82.0152 15.98 82.0152 16.56V20H81.0752V16.73C81.0752 15.9367 80.7152 15.54 79.9952 15.54C79.7552 15.54 79.5319 15.6033 79.3252 15.73C79.1186 15.8567 78.9519 16.03 78.8252 16.25C78.6986 16.4633 78.6352 16.7 78.6352 16.96V20H77.6952V12.8H78.6352V15.53ZM88.0744 14.79C88.7477 14.79 89.2477 14.9233 89.5744 15.19C89.9077 15.4567 90.0744 15.8433 90.0744 16.35V19C90.0744 19.12 90.101 19.21 90.1544 19.27C90.2077 19.3233 90.2744 19.35 90.3544 19.35C90.5077 19.35 90.661 19.3033 90.8144 19.21V19.9C90.5877 20.0333 90.331 20.1 90.0444 20.1C89.7577 20.1 89.5444 20.02 89.4044 19.86C89.2644 19.6933 89.1877 19.4667 89.1744 19.18C88.761 19.7933 88.1644 20.1 87.3844 20.1C86.8244 20.1 86.4044 19.98 86.1244 19.74C85.851 19.4933 85.7144 19.1067 85.7144 18.58C85.7144 18.1667 85.821 17.8433 86.0344 17.61C86.2477 17.37 86.601 17.1967 87.0944 17.09C87.5877 16.9833 88.2677 16.93 89.1344 16.93V16.46C89.1344 16.12 89.0344 15.8833 88.8344 15.75C88.6344 15.61 88.3444 15.54 87.9644 15.54C87.6044 15.54 87.3244 15.61 87.1244 15.75C86.9244 15.89 86.8244 16.0867 86.8244 16.34V16.46H85.9044C85.891 16.3667 85.8844 16.2567 85.8844 16.13C85.8844 15.8967 85.9777 15.6767 86.1644 15.47C86.351 15.2633 86.6044 15.1 86.9244 14.98C87.2444 14.8533 87.5977 14.79 87.9844 14.79H88.0744ZM89.1344 17.66C88.4344 17.66 87.9044 17.6967 87.5444 17.77C87.191 17.8367 86.9544 17.94 86.8344 18.08C86.7144 18.22 86.6544 18.4133 86.6544 18.66C86.6544 19.12 87.0044 19.35 87.7044 19.35C87.951 19.35 88.1844 19.29 88.4044 19.17C88.6244 19.0433 88.801 18.8667 88.9344 18.64C89.0677 18.4133 89.1344 18.1533 89.1344 17.86V17.66ZM94.434 14.79C94.994 14.79 95.434 14.94 95.754 15.24C96.074 15.54 96.234 15.98 96.234 16.56V20H95.294V16.73C95.294 15.9367 94.934 15.54 94.214 15.54C93.974 15.54 93.7507 15.6033 93.544 15.73C93.3373 15.8567 93.1707 16.03 93.044 16.25C92.9173 16.4633 92.854 16.7 92.854 16.96V20H91.914V14.89H92.594L92.724 15.64C93.1507 15.0733 93.7207 14.79 94.434 14.79ZM102.333 14.79C102.753 14.79 103.123 14.88 103.443 15.06C103.77 15.2333 104.023 15.4833 104.203 15.81C104.383 16.1367 104.473 16.5167 104.473 16.95V17.66H100.903C100.916 18.2 101.043 18.6167 101.283 18.91C101.523 19.2033 101.88 19.35 102.353 19.35C102.773 19.35 103.083 19.2267 103.283 18.98C103.483 18.7333 103.583 18.44 103.583 18.1H104.473C104.473 18.5 104.38 18.85 104.193 19.15C104.013 19.45 103.76 19.6833 103.433 19.85C103.113 20.0167 102.746 20.1 102.333 20.1H102.293C101.573 20.1 101.003 19.87 100.583 19.41C100.17 18.9433 99.9631 18.3233 99.9631 17.55V17.35C99.9631 16.8433 100.056 16.3967 100.243 16.01C100.43 15.6233 100.696 15.3233 101.043 15.11C101.39 14.8967 101.796 14.79 102.263 14.79H102.333ZM102.283 15.54C101.903 15.54 101.593 15.6567 101.353 15.89C101.12 16.1233 100.976 16.47 100.923 16.93H103.543V16.81C103.543 16.43 103.426 16.1233 103.193 15.89C102.966 15.6567 102.663 15.54 102.283 15.54ZM109.93 14.89L108.14 17.35L110.02 20H108.9L107.57 18.13L106.22 20H105.19L107.07 17.41L105.29 14.89H106.41L107.64 16.63L108.9 14.89H109.93ZM113.435 14.79C114.082 14.79 114.589 15.0267 114.955 15.5C115.322 15.9733 115.505 16.6233 115.505 17.45V17.56C115.505 18.3467 115.322 18.9667 114.955 19.42C114.595 19.8733 114.089 20.1 113.435 20.1C112.809 20.1 112.319 19.85 111.965 19.35V21.81H111.025V14.89H111.725C111.772 15.1033 111.815 15.3367 111.855 15.59C112.235 15.0567 112.762 14.79 113.435 14.79ZM113.265 15.54C112.812 15.54 112.479 15.6967 112.265 16.01C112.059 16.3233 111.955 16.8 111.955 17.44C111.955 18.0933 112.062 18.5767 112.275 18.89C112.495 19.1967 112.825 19.35 113.265 19.35C113.705 19.35 114.032 19.1933 114.245 18.88C114.459 18.5667 114.565 18.0867 114.565 17.44C114.565 16.7867 114.455 16.3067 114.235 16C114.022 15.6933 113.699 15.54 113.265 15.54ZM118.905 14.79C119.325 14.79 119.695 14.88 120.015 15.06C120.342 15.2333 120.595 15.4833 120.775 15.81C120.955 16.1367 121.045 16.5167 121.045 16.95V17.66H117.475C117.489 18.2 117.615 18.6167 117.855 18.91C118.095 19.2033 118.452 19.35 118.925 19.35C119.345 19.35 119.655 19.2267 119.855 18.98C120.055 18.7333 120.155 18.44 120.155 18.1H121.045C121.045 18.5 120.952 18.85 120.765 19.15C120.585 19.45 120.332 19.6833 120.005 19.85C119.685 20.0167 119.319 20.1 118.905 20.1H118.865C118.145 20.1 117.575 19.87 117.155 19.41C116.742 18.9433 116.535 18.3233 116.535 17.55V17.35C116.535 16.8433 116.629 16.3967 116.815 16.01C117.002 15.6233 117.269 15.3233 117.615 15.11C117.962 14.8967 118.369 14.79 118.835 14.79H118.905ZM118.855 15.54C118.475 15.54 118.165 15.6567 117.925 15.89C117.692 16.1233 117.549 16.47 117.495 16.93H120.115V16.81C120.115 16.43 119.999 16.1233 119.765 15.89C119.539 15.6567 119.235 15.54 118.855 15.54ZM124.712 14.79C125.185 14.79 125.555 14.9433 125.822 15.25C126.089 15.55 126.222 15.93 126.222 16.39L126.192 16.77H125.362V16.55C125.362 16.35 125.312 16.1733 125.212 16.02C125.112 15.8667 124.985 15.75 124.832 15.67C124.679 15.5833 124.525 15.54 124.372 15.54C124.052 15.54 123.802 15.6667 123.622 15.92C123.442 16.1733 123.352 16.5167 123.352 16.95V20H122.412V14.89H123.082L123.222 15.65C123.262 15.5167 123.352 15.3833 123.492 15.25C123.632 15.1167 123.805 15.0067 124.012 14.92C124.225 14.8333 124.459 14.79 124.712 14.79ZM128.274 12.8V13.67H127.294V12.8H128.274ZM128.254 14.89V20H127.314V14.89H128.254ZM131.962 14.79C132.382 14.79 132.752 14.88 133.072 15.06C133.399 15.2333 133.652 15.4833 133.832 15.81C134.012 16.1367 134.102 16.5167 134.102 16.95V17.66H130.532C130.545 18.2 130.672 18.6167 130.912 18.91C131.152 19.2033 131.509 19.35 131.982 19.35C132.402 19.35 132.712 19.2267 132.912 18.98C133.112 18.7333 133.212 18.44 133.212 18.1H134.102C134.102 18.5 134.009 18.85 133.822 19.15C133.642 19.45 133.389 19.6833 133.062 19.85C132.742 20.0167 132.375 20.1 131.962 20.1H131.922C131.202 20.1 130.632 19.87 130.212 19.41C129.799 18.9433 129.592 18.3233 129.592 17.55V17.35C129.592 16.8433 129.685 16.3967 129.872 16.01C130.059 15.6233 130.325 15.3233 130.672 15.11C131.019 14.8967 131.425 14.79 131.892 14.79H131.962ZM131.912 15.54C131.532 15.54 131.222 15.6567 130.982 15.89C130.749 16.1233 130.605 16.47 130.552 16.93H133.172V16.81C133.172 16.43 133.055 16.1233 132.822 15.89C132.595 15.6567 132.292 15.54 131.912 15.54ZM137.989 14.79C138.549 14.79 138.989 14.94 139.309 15.24C139.629 15.54 139.789 15.98 139.789 16.56V20H138.849V16.73C138.849 15.9367 138.489 15.54 137.769 15.54C137.529 15.54 137.305 15.6033 137.099 15.73C136.892 15.8567 136.725 16.03 136.599 16.25C136.472 16.4633 136.409 16.7 136.409 16.96V20H135.469V14.89H136.149L136.279 15.64C136.705 15.0733 137.275 14.79 137.989 14.79ZM143.396 14.79C143.803 14.79 144.166 14.88 144.486 15.06C144.813 15.2333 145.066 15.48 145.246 15.8C145.426 16.12 145.516 16.4867 145.516 16.9H144.586C144.586 16.4867 144.48 16.1567 144.266 15.91C144.06 15.6633 143.76 15.54 143.366 15.54C142.953 15.54 142.623 15.68 142.376 15.96C142.136 16.2333 142.016 16.61 142.016 17.09V17.63C142.016 18.21 142.136 18.6433 142.376 18.93C142.616 19.21 142.956 19.35 143.396 19.35C143.803 19.35 144.106 19.23 144.306 18.99C144.513 18.7433 144.616 18.4133 144.616 18H145.516C145.516 18.64 145.323 19.15 144.936 19.53C144.556 19.91 144.046 20.1 143.406 20.1H143.326C142.873 20.1 142.476 19.9967 142.136 19.79C141.796 19.5767 141.533 19.28 141.346 18.9C141.166 18.52 141.076 18.0767 141.076 17.57V17.33C141.076 16.8233 141.17 16.38 141.356 16C141.543 15.6133 141.806 15.3167 142.146 15.11C142.486 14.8967 142.876 14.79 143.316 14.79H143.396ZM148.886 14.79C149.306 14.79 149.676 14.88 149.996 15.06C150.323 15.2333 150.576 15.4833 150.756 15.81C150.936 16.1367 151.026 16.5167 151.026 16.95V17.66H147.456C147.469 18.2 147.596 18.6167 147.836 18.91C148.076 19.2033 148.433 19.35 148.906 19.35C149.326 19.35 149.636 19.2267 149.836 18.98C150.036 18.7333 150.136 18.44 150.136 18.1H151.026C151.026 18.5 150.933 18.85 150.746 19.15C150.566 19.45 150.313 19.6833 149.986 19.85C149.666 20.0167 149.299 20.1 148.886 20.1H148.846C148.126 20.1 147.556 19.87 147.136 19.41C146.723 18.9433 146.516 18.3233 146.516 17.55V17.35C146.516 16.8433 146.609 16.3967 146.796 16.01C146.983 15.6233 147.249 15.3233 147.596 15.11C147.943 14.8967 148.349 14.79 148.816 14.79H148.886ZM148.836 15.54C148.456 15.54 148.146 15.6567 147.906 15.89C147.673 16.1233 147.529 16.47 147.476 16.93H150.096V16.81C150.096 16.43 149.979 16.1233 149.746 15.89C149.519 15.6567 149.216 15.54 148.836 15.54ZM156.874 14.79C157.587 14.79 158.157 15.01 158.584 15.45C159.011 15.89 159.224 16.4933 159.224 17.26V17.63C159.224 18.3967 159.014 19 158.594 19.44C158.174 19.88 157.601 20.1 156.874 20.1C156.147 20.1 155.574 19.88 155.154 19.44C154.734 19 154.524 18.3967 154.524 17.63V17.26C154.524 16.4933 154.737 15.89 155.164 15.45C155.591 15.01 156.161 14.79 156.874 14.79ZM156.874 15.54C156.427 15.54 156.081 15.6933 155.834 16C155.587 16.3067 155.464 16.7567 155.464 17.35V17.54C155.464 18.12 155.584 18.5667 155.824 18.88C156.071 19.1933 156.421 19.35 156.874 19.35C157.314 19.35 157.657 19.1967 157.904 18.89C158.157 18.5767 158.284 18.1267 158.284 17.54V17.35C158.284 16.77 158.161 16.3233 157.914 16.01C157.674 15.6967 157.327 15.54 156.874 15.54ZM161.966 12.72C162.346 12.72 162.659 12.7833 162.906 12.91V13.6C162.706 13.5133 162.536 13.47 162.396 13.47C162.129 13.47 161.949 13.52 161.856 13.62C161.763 13.7133 161.716 13.8733 161.716 14.1V14.89H162.906V15.64H161.716V20H160.776V15.64H160.216V14.89H160.776V14.2C160.776 13.2133 161.173 12.72 161.966 12.72ZM169.246 13.04C169.06 13.7067 168.733 14.4933 168.266 15.4C167.8 16.3 167.376 16.9733 166.996 17.42H169.296V15.43C169.523 14.9833 169.703 14.5267 169.836 14.06H170.276V17.42H171.146V18.31H170.276V20H169.296V18.31H166.066V17.41C166.973 16.05 167.683 14.5933 168.196 13.04H169.246ZM177.25 19.8C177.023 20.36 176.813 20.7867 176.62 21.08C176.427 21.38 176.23 21.5833 176.03 21.69C175.83 21.8033 175.597 21.86 175.33 21.86C175.083 21.86 174.85 21.8133 174.63 21.72V20.95C174.85 21.0433 175.017 21.09 175.13 21.09C175.403 21.09 175.63 20.9967 175.81 20.81C175.997 20.63 176.15 20.3433 176.27 19.95L174.28 14.89H175.28L176.75 18.66H176.79L178.24 14.89H179.16L177.25 19.8ZM182.157 14.79C182.577 14.79 182.947 14.88 183.267 15.06C183.594 15.2333 183.847 15.4833 184.027 15.81C184.207 16.1367 184.297 16.5167 184.297 16.95V17.66H180.727C180.741 18.2 180.867 18.6167 181.107 18.91C181.347 19.2033 181.704 19.35 182.177 19.35C182.597 19.35 182.907 19.2267 183.107 18.98C183.307 18.7333 183.407 18.44 183.407 18.1H184.297C184.297 18.5 184.204 18.85 184.017 19.15C183.837 19.45 183.584 19.6833 183.257 19.85C182.937 20.0167 182.571 20.1 182.157 20.1H182.117C181.397 20.1 180.827 19.87 180.407 19.41C179.994 18.9433 179.787 18.3233 179.787 17.55V17.35C179.787 16.8433 179.881 16.3967 180.067 16.01C180.254 15.6233 180.521 15.3233 180.867 15.11C181.214 14.8967 181.621 14.79 182.087 14.79H182.157ZM182.107 15.54C181.727 15.54 181.417 15.6567 181.177 15.89C180.944 16.1233 180.801 16.47 180.747 16.93H183.367V16.81C183.367 16.43 183.251 16.1233 183.017 15.89C182.791 15.6567 182.487 15.54 182.107 15.54ZM187.674 14.79C188.347 14.79 188.847 14.9233 189.174 15.19C189.507 15.4567 189.674 15.8433 189.674 16.35V19C189.674 19.12 189.701 19.21 189.754 19.27C189.807 19.3233 189.874 19.35 189.954 19.35C190.107 19.35 190.261 19.3033 190.414 19.21V19.9C190.187 20.0333 189.931 20.1 189.644 20.1C189.357 20.1 189.144 20.02 189.004 19.86C188.864 19.6933 188.787 19.4667 188.774 19.18C188.361 19.7933 187.764 20.1 186.984 20.1C186.424 20.1 186.004 19.98 185.724 19.74C185.451 19.4933 185.314 19.1067 185.314 18.58C185.314 18.1667 185.421 17.8433 185.634 17.61C185.847 17.37 186.201 17.1967 186.694 17.09C187.187 16.9833 187.867 16.93 188.734 16.93V16.46C188.734 16.12 188.634 15.8833 188.434 15.75C188.234 15.61 187.944 15.54 187.564 15.54C187.204 15.54 186.924 15.61 186.724 15.75C186.524 15.89 186.424 16.0867 186.424 16.34V16.46H185.504C185.491 16.3667 185.484 16.2567 185.484 16.13C185.484 15.8967 185.577 15.6767 185.764 15.47C185.951 15.2633 186.204 15.1 186.524 14.98C186.844 14.8533 187.197 14.79 187.584 14.79H187.674ZM188.734 17.66C188.034 17.66 187.504 17.6967 187.144 17.77C186.791 17.8367 186.554 17.94 186.434 18.08C186.314 18.22 186.254 18.4133 186.254 18.66C186.254 19.12 186.604 19.35 187.304 19.35C187.551 19.35 187.784 19.29 188.004 19.17C188.224 19.0433 188.401 18.8667 188.534 18.64C188.667 18.4133 188.734 18.1533 188.734 17.86V17.66ZM193.814 14.79C194.287 14.79 194.657 14.9433 194.924 15.25C195.19 15.55 195.324 15.93 195.324 16.39L195.294 16.77H194.464V16.55C194.464 16.35 194.414 16.1733 194.314 16.02C194.214 15.8667 194.087 15.75 193.934 15.67C193.78 15.5833 193.627 15.54 193.474 15.54C193.154 15.54 192.904 15.6667 192.724 15.92C192.544 16.1733 192.454 16.5167 192.454 16.95V20H191.514V14.89H192.184L192.324 15.65C192.364 15.5167 192.454 15.3833 192.594 15.25C192.734 15.1167 192.907 15.0067 193.114 14.92C193.327 14.8333 193.56 14.79 193.814 14.79ZM198.366 14.79C198.746 14.79 199.083 14.85 199.376 14.97C199.676 15.09 199.906 15.2567 200.066 15.47C200.233 15.6833 200.316 15.92 200.316 16.18L200.306 16.36H199.376V16.27C199.376 15.7833 198.999 15.54 198.246 15.54C197.499 15.54 197.126 15.7633 197.126 16.21C197.126 16.4167 197.233 16.57 197.446 16.67C197.659 16.7633 197.986 16.8533 198.426 16.94C198.846 17.0267 199.189 17.1167 199.456 17.21C199.729 17.3033 199.959 17.45 200.146 17.65C200.339 17.85 200.436 18.12 200.436 18.46C200.436 19.0067 200.249 19.4167 199.876 19.69C199.503 19.9633 198.966 20.1 198.266 20.1H198.116C197.696 20.1 197.329 20.0367 197.016 19.91C196.703 19.7767 196.459 19.6 196.286 19.38C196.119 19.1533 196.039 18.9 196.046 18.62V18.4H196.976V18.5C196.976 19.0667 197.453 19.35 198.406 19.35C198.686 19.35 198.936 19.2867 199.156 19.16C199.383 19.0333 199.496 18.86 199.496 18.64C199.496 18.4533 199.433 18.3067 199.306 18.2C199.186 18.0933 199.036 18.0133 198.856 17.96C198.676 17.9067 198.426 17.8533 198.106 17.8C197.693 17.72 197.359 17.64 197.106 17.56C196.853 17.4733 196.636 17.33 196.456 17.13C196.276 16.93 196.186 16.6567 196.186 16.31C196.186 15.8367 196.373 15.4667 196.746 15.2C197.119 14.9267 197.629 14.79 198.276 14.79H198.366ZM202.628 18.89V20H201.618V18.89H202.628Z" fill="black"/>
</svg>
