<svg width="26" height="7" viewBox="0 0 26 7" fill="none" xmlns="http://www.w3.org/2000/svg">
<path d="M2.64 0.512C3.09867 0.512 3.49867 0.613333 3.84 0.816C4.18133 1.01333 4.44533 1.29867 4.632 1.672C4.81867 2.04 4.912 2.47467 4.912 2.976V3.536C4.912 4.03733 4.81867 4.47467 4.632 4.848C4.44533 5.216 4.18133 5.50133 3.84 5.704C3.49867 5.90133 3.09867 6 2.64 6H0.736V0.512H2.64ZM1.52 1.224V5.288H2.64C3.11467 5.288 3.48 5.14133 3.736 4.848C3.99733 4.54933 4.128 4.112 4.128 3.536V2.976C4.128 2.41067 4 1.97867 3.744 1.68C3.49333 1.376 3.12533 1.224 2.64 1.224H1.52ZM7.70244 1.832C8.03844 1.832 8.33444 1.904 8.59044 2.048C8.85177 2.18667 9.05444 2.38667 9.19844 2.648C9.34244 2.90933 9.41444 3.21333 9.41444 3.56V4.128H6.55844C6.5691 4.56 6.67044 4.89333 6.86244 5.128C7.05444 5.36267 7.33977 5.48 7.71844 5.48C8.05444 5.48 8.30244 5.38133 8.46244 5.184C8.62244 4.98667 8.70244 4.752 8.70244 4.48H9.41444C9.41444 4.8 9.33977 5.08 9.19044 5.32C9.04644 5.56 8.84377 5.74667 8.58244 5.88C8.32644 6.01333 8.0331 6.08 7.70244 6.08H7.67044C7.09444 6.08 6.63844 5.896 6.30244 5.528C5.97177 5.15467 5.80644 4.65867 5.80644 4.04V3.88C5.80644 3.47467 5.8811 3.11733 6.03044 2.808C6.17977 2.49867 6.3931 2.25867 6.67044 2.088C6.94777 1.91733 7.2731 1.832 7.64644 1.832H7.70244ZM7.66244 2.432C7.35844 2.432 7.11044 2.52533 6.91844 2.712C6.73177 2.89867 6.6171 3.176 6.57444 3.544H8.67044V3.448C8.67044 3.144 8.5771 2.89867 8.39044 2.712C8.2091 2.52533 7.96644 2.432 7.66244 2.432ZM11.3878 1.912H12.3398V2.512H11.3878V4.952C11.3878 5.144 11.4251 5.28267 11.4998 5.368C11.5744 5.45333 11.6891 5.496 11.8438 5.496C11.9824 5.496 12.1478 5.456 12.3398 5.376V5.936C12.1478 6.032 11.8998 6.08 11.5958 6.08C11.2811 6.08 11.0411 5.98667 10.8758 5.8C10.7158 5.61333 10.6358 5.31733 10.6358 4.912V2.512H10.1878V1.912H10.6598L10.9158 0.608H11.3878V1.912ZM14.8814 1.832C15.42 1.832 15.82 1.93867 16.0814 2.152C16.348 2.36533 16.4814 2.67467 16.4814 3.08V5.2C16.4814 5.296 16.5027 5.368 16.5454 5.416C16.588 5.45867 16.6414 5.48 16.7054 5.48C16.828 5.48 16.9507 5.44267 17.0734 5.368V5.92C16.892 6.02667 16.6867 6.08 16.4574 6.08C16.228 6.08 16.0574 6.016 15.9454 5.888C15.8334 5.75467 15.772 5.57333 15.7614 5.344C15.4307 5.83467 14.9534 6.08 14.3294 6.08C13.8814 6.08 13.5454 5.984 13.3214 5.792C13.1027 5.59467 12.9934 5.28533 12.9934 4.864C12.9934 4.53333 13.0787 4.27467 13.2494 4.088C13.42 3.896 13.7027 3.75733 14.0974 3.672C14.492 3.58667 15.036 3.544 15.7294 3.544V3.168C15.7294 2.896 15.6494 2.70667 15.4894 2.6C15.3294 2.488 15.0974 2.432 14.7934 2.432C14.5054 2.432 14.2814 2.488 14.1214 2.6C13.9614 2.712 13.8814 2.86933 13.8814 3.072V3.168H13.1454C13.1347 3.09333 13.1294 3.00533 13.1294 2.904C13.1294 2.71733 13.204 2.54133 13.3534 2.376C13.5027 2.21067 13.7054 2.08 13.9614 1.984C14.2174 1.88267 14.5 1.832 14.8094 1.832H14.8814ZM15.7294 4.128C15.1694 4.128 14.7454 4.15733 14.4574 4.216C14.1747 4.26933 13.9854 4.352 13.8894 4.464C13.7934 4.576 13.7454 4.73067 13.7454 4.928C13.7454 5.296 14.0254 5.48 14.5854 5.48C14.7827 5.48 14.9694 5.432 15.1454 5.336C15.3214 5.23467 15.4627 5.09333 15.5694 4.912C15.676 4.73067 15.7294 4.52267 15.7294 4.288V4.128ZM18.7211 0.24V0.936H17.9371V0.24H18.7211ZM18.7051 1.912V6H17.9531V1.912H18.7051ZM20.8152 0.24V6H20.0632V0.24H20.8152ZM23.7318 1.832C24.0358 1.832 24.3051 1.88 24.5398 1.976C24.7798 2.072 24.9638 2.20533 25.0918 2.376C25.2251 2.54667 25.2918 2.736 25.2918 2.944L25.2838 3.088H24.5398V3.016C24.5398 2.62667 24.2385 2.432 23.6358 2.432C23.0385 2.432 22.7398 2.61067 22.7398 2.968C22.7398 3.13333 22.8251 3.256 22.9958 3.336C23.1665 3.41067 23.4278 3.48267 23.7798 3.552C24.1158 3.62133 24.3905 3.69333 24.6038 3.768C24.8225 3.84267 25.0065 3.96 25.1558 4.12C25.3105 4.28 25.3878 4.496 25.3878 4.768C25.3878 5.20533 25.2385 5.53333 24.9398 5.752C24.6411 5.97067 24.2118 6.08 23.6518 6.08H23.5318C23.1958 6.08 22.9025 6.02933 22.6518 5.928C22.4011 5.82133 22.2065 5.68 22.0678 5.504C21.9345 5.32267 21.8705 5.12 21.8758 4.896V4.72H22.6198V4.8C22.6198 5.25333 23.0011 5.48 23.7638 5.48C23.9878 5.48 24.1878 5.42933 24.3638 5.328C24.5451 5.22667 24.6358 5.088 24.6358 4.912C24.6358 4.76267 24.5851 4.64533 24.4838 4.56C24.3878 4.47467 24.2678 4.41067 24.1238 4.368C23.9798 4.32533 23.7798 4.28267 23.5238 4.24C23.1931 4.176 22.9265 4.112 22.7238 4.048C22.5211 3.97867 22.3478 3.864 22.2038 3.704C22.0598 3.544 21.9878 3.32533 21.9878 3.048C21.9878 2.66933 22.1371 2.37333 22.4358 2.16C22.7345 1.94133 23.1425 1.832 23.6598 1.832H23.7318Z" fill="#8D4337"/>
</svg>
