<svg width="17" height="7" viewBox="0 0 17 7" fill="none" xmlns="http://www.w3.org/2000/svg">
<path d="M4.808 0.512V6H4.024V3.552H1.52V6H0.736V0.512H1.52V2.84H4.024V0.512H4.808ZM6.97888 0.24V0.936H6.19488V0.24H6.97888ZM6.96288 1.912V6H6.21088V1.912H6.96288ZM11.625 6H11.065C11.0277 5.82933 10.993 5.64267 10.961 5.44C10.657 5.86667 10.2357 6.08 9.697 6.08C9.185 6.08 8.77967 5.89067 8.481 5.512C8.18767 5.13333 8.041 4.61333 8.041 3.952V3.864C8.041 3.24 8.185 2.74667 8.473 2.384C8.76633 2.016 9.17433 1.832 9.697 1.832C10.2037 1.832 10.5957 2.032 10.873 2.432V0.24H11.625V6ZM9.833 2.432C9.47567 2.432 9.21167 2.55733 9.041 2.808C8.87567 3.05333 8.793 3.43733 8.793 3.96C8.793 4.48267 8.87833 4.86667 9.049 5.112C9.21967 5.35733 9.481 5.48 9.833 5.48C10.5317 5.48 10.881 4.97333 10.881 3.96C10.881 3.43733 10.793 3.05333 10.617 2.808C10.441 2.55733 10.1797 2.432 9.833 2.432ZM14.5931 1.832C14.9291 1.832 15.2251 1.904 15.4811 2.048C15.7424 2.18667 15.9451 2.38667 16.0891 2.648C16.2331 2.90933 16.3051 3.21333 16.3051 3.56V4.128H13.4491C13.4597 4.56 13.5611 4.89333 13.7531 5.128C13.9451 5.36267 14.2304 5.48 14.6091 5.48C14.9451 5.48 15.1931 5.38133 15.3531 5.184C15.5131 4.98667 15.5931 4.752 15.5931 4.48H16.3051C16.3051 4.8 16.2304 5.08 16.0811 5.32C15.9371 5.56 15.7344 5.74667 15.4731 5.88C15.2171 6.01333 14.9237 6.08 14.5931 6.08H14.5611C13.9851 6.08 13.5291 5.896 13.1931 5.528C12.8624 5.15467 12.6971 4.65867 12.6971 4.04V3.88C12.6971 3.47467 12.7717 3.11733 12.9211 2.808C13.0704 2.49867 13.2837 2.25867 13.5611 2.088C13.8384 1.91733 14.1637 1.832 14.5371 1.832H14.5931ZM14.5531 2.432C14.2491 2.432 14.0011 2.52533 13.8091 2.712C13.6224 2.89867 13.5077 3.176 13.4651 3.544H15.5611V3.448C15.5611 3.144 15.4677 2.89867 15.2811 2.712C15.0997 2.52533 14.8571 2.432 14.5531 2.432Z" fill="#8D4337"/>
</svg>
