<svg width="26" height="8" viewBox="0 0 26 8" fill="none" xmlns="http://www.w3.org/2000/svg">
<path d="M3.072 0.512C3.55733 0.512 3.95467 0.626666 4.264 0.856C4.57867 1.08533 4.736 1.4 4.736 1.8C4.736 2.15733 4.64 2.46133 4.448 2.712C4.26133 2.96267 4.02933 3.11467 3.752 3.168V3.208C4.008 3.30933 4.21867 3.48533 4.384 3.736C4.54933 3.98667 4.632 4.288 4.632 4.64C4.632 4.93333 4.648 5.15467 4.68 5.304C4.712 5.45333 4.75467 5.55733 4.808 5.616C4.86133 5.67467 4.93867 5.72 5.04 5.752V5.976C4.92267 6.024 4.79733 6.048 4.664 6.048C4.408 6.048 4.208 5.97333 4.064 5.824C3.92 5.66933 3.848 5.38133 3.848 4.96C3.848 4.528 3.75733 4.192 3.576 3.952C3.4 3.70667 3.17867 3.584 2.912 3.584H1.52V6H0.736V0.512H3.072ZM1.52 1.224V2.872H3.08C3.30933 2.872 3.512 2.79467 3.688 2.64C3.864 2.48533 3.952 2.29333 3.952 2.064V2.032C3.952 1.79733 3.872 1.60533 3.712 1.456C3.552 1.30133 3.34133 1.224 3.08 1.224H1.52ZM7.6165 1.832C7.9525 1.832 8.2485 1.904 8.5045 2.048C8.76583 2.18667 8.9685 2.38667 9.1125 2.648C9.2565 2.90933 9.3285 3.21333 9.3285 3.56V4.128H6.4725C6.48317 4.56 6.5845 4.89333 6.7765 5.128C6.9685 5.36267 7.25383 5.48 7.6325 5.48C7.9685 5.48 8.2165 5.38133 8.3765 5.184C8.5365 4.98667 8.6165 4.752 8.6165 4.48H9.3285C9.3285 4.8 9.25383 5.08 9.1045 5.32C8.9605 5.56 8.75783 5.74667 8.4965 5.88C8.2405 6.01333 7.94717 6.08 7.6165 6.08H7.5845C7.0085 6.08 6.5525 5.896 6.2165 5.528C5.88583 5.15467 5.7205 4.65867 5.7205 4.04V3.88C5.7205 3.47467 5.79517 3.11733 5.9445 2.808C6.09383 2.49867 6.30717 2.25867 6.5845 2.088C6.86183 1.91733 7.18717 1.832 7.5605 1.832H7.6165ZM7.5765 2.432C7.2725 2.432 7.0245 2.52533 6.8325 2.712C6.64583 2.89867 6.53117 3.176 6.4885 3.544H8.5845V3.448C8.5845 3.144 8.49117 2.89867 8.3045 2.712C8.12317 2.52533 7.8805 2.432 7.5765 2.432ZM12.3498 1.832C12.8671 1.832 13.2725 2.02133 13.5658 2.4C13.8591 2.77867 14.0058 3.29867 14.0058 3.96V4.048C14.0058 4.67733 13.8591 5.17333 13.5658 5.536C13.2778 5.89867 12.8725 6.08 12.3498 6.08C11.8485 6.08 11.4565 5.88 11.1738 5.48V7.448H10.4218V1.912H10.9818C11.0191 2.08267 11.0538 2.26933 11.0858 2.472C11.3898 2.04533 11.8111 1.832 12.3498 1.832ZM12.2138 2.432C11.8511 2.432 11.5845 2.55733 11.4138 2.808C11.2485 3.05867 11.1658 3.44 11.1658 3.952C11.1658 4.47467 11.2511 4.86133 11.4218 5.112C11.5978 5.35733 11.8618 5.48 12.2138 5.48C12.5658 5.48 12.8271 5.35467 12.9978 5.104C13.1685 4.85333 13.2538 4.46933 13.2538 3.952C13.2538 3.42933 13.1658 3.04533 12.9898 2.8C12.8191 2.55467 12.5605 2.432 12.2138 2.432ZM16.7179 1.832C17.2885 1.832 17.7445 2.008 18.0859 2.36C18.4272 2.712 18.5979 3.19467 18.5979 3.808V4.104C18.5979 4.71733 18.4299 5.2 18.0939 5.552C17.7579 5.904 17.2992 6.08 16.7179 6.08C16.1365 6.08 15.6779 5.904 15.3419 5.552C15.0059 5.2 14.8379 4.71733 14.8379 4.104V3.808C14.8379 3.19467 15.0085 2.712 15.3499 2.36C15.6912 2.008 16.1472 1.832 16.7179 1.832ZM16.7179 2.432C16.3605 2.432 16.0832 2.55467 15.8859 2.8C15.6885 3.04533 15.5899 3.40533 15.5899 3.88V4.032C15.5899 4.496 15.6859 4.85333 15.8779 5.104C16.0752 5.35467 16.3552 5.48 16.7179 5.48C17.0699 5.48 17.3445 5.35733 17.5419 5.112C17.7445 4.86133 17.8459 4.50133 17.8459 4.032V3.88C17.8459 3.416 17.7472 3.05867 17.5499 2.808C17.3579 2.55733 17.0805 2.432 16.7179 2.432ZM21.5196 1.832C21.8983 1.832 22.1943 1.95467 22.4076 2.2C22.621 2.44 22.7276 2.744 22.7276 3.112L22.7036 3.416H22.0396V3.24C22.0396 3.08 21.9996 2.93867 21.9196 2.816C21.8396 2.69333 21.7383 2.6 21.6156 2.536C21.493 2.46667 21.3703 2.432 21.2476 2.432C20.9916 2.432 20.7916 2.53333 20.6476 2.736C20.5036 2.93867 20.4316 3.21333 20.4316 3.56V6H19.6796V1.912H20.2156L20.3276 2.52C20.3596 2.41333 20.4316 2.30667 20.5436 2.2C20.6556 2.09333 20.7943 2.00533 20.9596 1.936C21.1303 1.86667 21.317 1.832 21.5196 1.832ZM24.4815 1.912H25.4335V2.512H24.4815V4.952C24.4815 5.144 24.5188 5.28267 24.5935 5.368C24.6682 5.45333 24.7828 5.496 24.9375 5.496C25.0762 5.496 25.2415 5.456 25.4335 5.376V5.936C25.2415 6.032 24.9935 6.08 24.6895 6.08C24.3748 6.08 24.1348 5.98667 23.9695 5.8C23.8095 5.61333 23.7295 5.31733 23.7295 4.912V2.512H23.2815V1.912H23.7535L24.0095 0.608H24.4815V1.912Z" fill="#8D4337"/>
</svg>
