<svg width="33" height="7" viewBox="0 0 33 7" fill="none" xmlns="http://www.w3.org/2000/svg">
<path d="M2.512 0.432C3.11467 0.432 3.58667 0.565333 3.928 0.832C4.27467 1.09867 4.448 1.47733 4.448 1.968V2.064H3.664V1.944C3.664 1.688 3.56 1.49067 3.352 1.352C3.144 1.21333 2.86933 1.144 2.528 1.144C2.14933 1.144 1.85333 1.208 1.64 1.336C1.432 1.45867 1.328 1.63733 1.328 1.872C1.328 2.048 1.38667 2.192 1.504 2.304C1.62667 2.416 1.776 2.504 1.952 2.568C2.13333 2.632 2.38133 2.704 2.696 2.784C3.10133 2.89067 3.42933 2.99467 3.68 3.096C3.93067 3.19733 4.144 3.34933 4.32 3.552C4.50133 3.75467 4.592 4.024 4.592 4.36C4.592 4.95733 4.408 5.39467 4.04 5.672C3.67733 5.944 3.16533 6.08 2.504 6.08C1.84267 6.08 1.328 5.94133 0.96 5.664C0.597333 5.38133 0.416 4.97333 0.416 4.44L0.424 4.28H1.208L1.2 4.448C1.2 4.75733 1.31467 4.98933 1.544 5.144C1.77867 5.29333 2.10133 5.368 2.512 5.368C2.912 5.368 3.22667 5.296 3.456 5.152C3.69067 5.00267 3.808 4.8 3.808 4.544C3.808 4.34133 3.744 4.17867 3.616 4.056C3.49333 3.928 3.336 3.82933 3.144 3.76C2.95733 3.69067 2.70133 3.61333 2.376 3.528C1.976 3.42133 1.656 3.32 1.416 3.224C1.176 3.128 0.970667 2.98133 0.8 2.784C0.629333 2.58133 0.544 2.31733 0.544 1.992C0.544 1.464 0.722667 1.072 1.08 0.816C1.43733 0.56 1.91467 0.432 2.512 0.432ZM6.43163 2.424C6.76763 2.02933 7.18896 1.832 7.69563 1.832C8.14363 1.832 8.49563 1.952 8.75163 2.192C9.00763 2.432 9.13563 2.784 9.13563 3.248V6H8.38363V3.384C8.38363 2.74933 8.09563 2.432 7.51963 2.432C7.32763 2.432 7.14896 2.48267 6.98363 2.584C6.81829 2.68533 6.68496 2.824 6.58363 3C6.48229 3.17067 6.43163 3.36 6.43163 3.568V6H5.67963V0.24H6.43163V2.424ZM12.0538 1.832C12.6245 1.832 13.0805 2.008 13.4218 2.36C13.7631 2.712 13.9338 3.19467 13.9338 3.808V4.104C13.9338 4.71733 13.7658 5.2 13.4298 5.552C13.0938 5.904 12.6351 6.08 12.0538 6.08C11.4725 6.08 11.0138 5.904 10.6778 5.552C10.3418 5.2 10.1738 4.71733 10.1738 4.104V3.808C10.1738 3.19467 10.3445 2.712 10.6858 2.36C11.0271 2.008 11.4831 1.832 12.0538 1.832ZM12.0538 2.432C11.6965 2.432 11.4191 2.55467 11.2218 2.8C11.0245 3.04533 10.9258 3.40533 10.9258 3.88V4.032C10.9258 4.496 11.0218 4.85333 11.2138 5.104C11.4111 5.35467 11.6911 5.48 12.0538 5.48C12.4058 5.48 12.6805 5.35733 12.8778 5.112C13.0805 4.86133 13.1818 4.50133 13.1818 4.032V3.88C13.1818 3.416 13.0831 3.05867 12.8858 2.808C12.6938 2.55733 12.4165 2.432 12.0538 2.432ZM16.8556 1.832C17.2342 1.832 17.5302 1.95467 17.7436 2.2C17.9569 2.44 18.0636 2.744 18.0636 3.112L18.0396 3.416H17.3756V3.24C17.3756 3.08 17.3356 2.93867 17.2556 2.816C17.1756 2.69333 17.0742 2.6 16.9516 2.536C16.8289 2.46667 16.7062 2.432 16.5836 2.432C16.3276 2.432 16.1276 2.53333 15.9836 2.736C15.8396 2.93867 15.7676 3.21333 15.7676 3.56V6H15.0156V1.912H15.5516L15.6636 2.52C15.6956 2.41333 15.7676 2.30667 15.8796 2.2C15.9916 2.09333 16.1302 2.00533 16.2956 1.936C16.4662 1.86667 16.6529 1.832 16.8556 1.832ZM19.8174 1.912H20.7694V2.512H19.8174V4.952C19.8174 5.144 19.8548 5.28267 19.9294 5.368C20.0041 5.45333 20.1188 5.496 20.2734 5.496C20.4121 5.496 20.5774 5.456 20.7694 5.376V5.936C20.5774 6.032 20.3294 6.08 20.0254 6.08C19.7108 6.08 19.4708 5.98667 19.3054 5.8C19.1454 5.61333 19.0654 5.31733 19.0654 4.912V2.512H18.6174V1.912H19.0894L19.3454 0.608H19.8174V1.912ZM22.4871 0.24V6H21.7351V0.24H22.4871ZM24.6117 0.24V0.936H23.8277V0.24H24.6117ZM24.5957 1.912V6H23.8437V1.912H24.5957ZM27.4818 1.832C27.7858 1.832 28.0551 1.88 28.2898 1.976C28.5298 2.072 28.7138 2.20533 28.8418 2.376C28.9751 2.54667 29.0418 2.736 29.0418 2.944L29.0338 3.088H28.2898V3.016C28.2898 2.62667 27.9885 2.432 27.3858 2.432C26.7885 2.432 26.4898 2.61067 26.4898 2.968C26.4898 3.13333 26.5751 3.256 26.7458 3.336C26.9165 3.41067 27.1778 3.48267 27.5298 3.552C27.8658 3.62133 28.1405 3.69333 28.3538 3.768C28.5725 3.84267 28.7565 3.96 28.9058 4.12C29.0605 4.28 29.1378 4.496 29.1378 4.768C29.1378 5.20533 28.9885 5.53333 28.6898 5.752C28.3911 5.97067 27.9618 6.08 27.4018 6.08H27.2818C26.9458 6.08 26.6525 6.02933 26.4018 5.928C26.1511 5.82133 25.9565 5.68 25.8178 5.504C25.6845 5.32267 25.6205 5.12 25.6258 4.896V4.72H26.3698V4.8C26.3698 5.25333 26.7511 5.48 27.5138 5.48C27.7378 5.48 27.9378 5.42933 28.1138 5.328C28.2951 5.22667 28.3858 5.088 28.3858 4.912C28.3858 4.76267 28.3351 4.64533 28.2338 4.56C28.1378 4.47467 28.0178 4.41067 27.8738 4.368C27.7298 4.32533 27.5298 4.28267 27.2738 4.24C26.9431 4.176 26.6765 4.112 26.4738 4.048C26.2711 3.97867 26.0978 3.864 25.9538 3.704C25.8098 3.544 25.7378 3.32533 25.7378 3.048C25.7378 2.66933 25.8871 2.37333 26.1858 2.16C26.4845 1.94133 26.8925 1.832 27.4098 1.832H27.4818ZM31.0753 1.912H32.0273V2.512H31.0753V4.952C31.0753 5.144 31.1126 5.28267 31.1873 5.368C31.2619 5.45333 31.3766 5.496 31.5312 5.496C31.6699 5.496 31.8353 5.456 32.0273 5.376V5.936C31.8353 6.032 31.5873 6.08 31.2833 6.08C30.9686 6.08 30.7286 5.98667 30.5633 5.8C30.4033 5.61333 30.3233 5.31733 30.3233 4.912V2.512H29.8753V1.912H30.3473L30.6033 0.608H31.0753V1.912Z" fill="#8D4337"/>
</svg>
